# xmcd CD database file
#
# Track frame offsets:
#	150
#	18134
#	40215
#	60704
#	79550
#	99553
#	117143
#	133378
#	152838
#	171558
#	192032
#	209143
#
# Disc length: 3030 seconds
#
# Revision: 1
# Processed by: cddbd v1.5.1PL0 Copyright (c) Steve Scherf et al.
# Submitted via: CDex 1.51
#
DISCID=a50bd40c
DTITLE=SG WANNA BE - SG WANNA BE+
DYEAR=2004
DGENRE=Ballad
TTITLE0=Timeless
TTITLE1=死ぬほど愛したよ
TTITLE2=愛したくて
TTITLE3=タブー
TTITLE4=幼い愛
TTITLE5=愛したのは本当に良いことだった
TTITLE6=Don't Know Why
TTITLE7=信じるよ
TTITLE8=だけど
TTITLE9=その時まで
TTITLE10=最近のきみは
TTITLE11=笑ってしまうだろ
EXTD=YEAR: 2004
EXTT0=
EXTT1=
EXTT2=
EXTT3=
EXTT4=
EXTT5=
EXTT6=
EXTT7=
EXTT8=
EXTT9=
EXTT10=
EXTT11=
PLAYORDER=
